<svg xmlns="http://www.w3.org/2000/svg" xmlns:xlink="http://www.w3.org/1999/xlink" width="244.872" height="50" viewBox="0 0 244.872 50">
  <defs>
    <clipPath id="clip-path">
      <rect id="사각형_353424" data-name="사각형 353424" width="244.872" height="50" transform="translate(0 -0.231)" fill="#999ca2"/>
    </clipPath>
    <clipPath id="clip-path-2">
      <rect id="사각형_353423" data-name="사각형 353423" width="244.872" height="50" fill="#999ca2"/>
    </clipPath>
  </defs>
  <g id="마스크_그룹_472090" data-name="마스크 그룹 472090" transform="translate(0 0.231)" clip-path="url(#clip-path)">
    <g id="그룹_473028" data-name="그룹 473028" transform="translate(0 -1.513)">
      <rect id="사각형_353415" data-name="사각형 353415" width="6.096" height="30.483" transform="translate(180.97 3.661)" fill="#999ca2"/>
      <g id="그룹_473027" data-name="그룹 473027" transform="translate(0 0)">
        <g id="마스크_그룹_473026" data-name="마스크 그룹 473026" clip-path="url(#clip-path-2)">
          <path id="패스_863448" data-name="패스 863448" d="M149.257,33.365h-8.275V27.31h8.275a1.813,1.813,0,0,0,1.82-1.8V10.945a1.813,1.813,0,0,0-1.82-1.8H132.718V3.088h16.539a7.908,7.908,0,0,1,7.939,7.857V25.509a7.907,7.907,0,0,1-7.939,7.856" transform="translate(-9.29 0.554)" fill="#999ca2"/>
          <rect id="사각형_353416" data-name="사각형 353416" width="6.119" height="22.1" transform="translate(123.428 11.818)" fill="#999ca2"/>
          <path id="패스_863449" data-name="패스 863449" d="M180.185,33.365H171.91V27.31h8.275a1.813,1.813,0,0,0,1.82-1.8V10.945a1.813,1.813,0,0,0-1.82-1.8H163.646V3.088h16.539a7.908,7.908,0,0,1,7.939,7.857V25.509a7.907,7.907,0,0,1-7.939,7.856" transform="translate(-11.456 0.554)" fill="#999ca2"/>
          <rect id="사각형_353417" data-name="사각형 353417" width="6.119" height="22.1" transform="translate(152.19 11.818)" fill="#999ca2"/>
          <path id="패스_863450" data-name="패스 863450" d="M87.127,27.309h-8.26V21.254h8.26a1.813,1.813,0,0,0,1.821-1.8V10.944a1.813,1.813,0,0,0-1.821-1.8H66.917V3.087h20.21a7.908,7.908,0,0,1,7.94,7.857v8.509a7.908,7.908,0,0,1-7.94,7.856" transform="translate(-4.684 0.554)" fill="#999ca2"/>
          <rect id="사각형_353418" data-name="사각형 353418" width="6.119" height="22.1" transform="translate(65.904 11.818)" fill="#999ca2"/>
          <rect id="사각형_353419" data-name="사각형 353419" width="6.119" height="22.101" transform="translate(113.025 3.642)" fill="#999ca2"/>
          <rect id="사각형_353420" data-name="사각형 353420" width="6.119" height="22.101" transform="translate(94.666 3.642)" fill="#999ca2"/>
          <path id="패스_863451" data-name="패스 863451" d="M118.347,29.408h-16.32a7.931,7.931,0,0,0,7.722,6.055h8.6a7.907,7.907,0,0,0,7.368-4.927,7.769,7.769,0,0,0,.352-1.128h-7.721" transform="translate(-7.142 -1.545)" fill="#999ca2"/>
          <path id="패스_863452" data-name="패스 863452" d="M225.421,35.468h5.916V29.462h-9.865Z" transform="translate(-15.503 -1.55)" fill="#999ca2"/>
          <path id="패스_863453" data-name="패스 863453" d="M230.237,3.088h-6.091V22.056L211.675,3.088h-5.917V33.365h6.092V14.4l7.14,10.859h11.247Z" transform="translate(-14.403 0.554)" fill="#999ca2"/>
          <path id="패스_863454" data-name="패스 863454" d="M242.805,34.074h0a6.088,6.088,0,0,1-6.119-6.055V11.974h6.119Z" transform="translate(-16.568 -0.155)" fill="#999ca2"/>
          <path id="패스_863455" data-name="패스 863455" d="M261.164,9.143H236.685a6.088,6.088,0,0,1,6.12-6.055h18.358Z" transform="translate(-16.568 0.554)" fill="#999ca2"/>
          <path id="패스_863456" data-name="패스 863456" d="M258.726,34.592H245.571V28.537h10.1V24.53h-6.119V18.475h9.179a3.044,3.044,0,0,1,3.06,3.028V31.565a3.044,3.044,0,0,1-3.06,3.028" transform="translate(-17.19 -0.673)" fill="#999ca2"/>
          <path id="패스_863457" data-name="패스 863457" d="M106.187,46.6h2.784c.717,0,.972.392.972,1.073v1.457a1.975,1.975,0,0,1-1.472,1.578h-2.1v2.6h-1V47.324a.262.262,0,0,1,.1-.233l.5-.421a.288.288,0,0,1,.217-.065m.179,3.268h1.774a.891.891,0,0,0,.8-.719V47.707c0-.158-.066-.261-.3-.261h-2.274Z" transform="translate(-7.376 -2.917)" fill="#999ca2"/>
          <rect id="사각형_353421" data-name="사각형 353421" width="1.001" height="6.704" transform="translate(105.173 43.688)" fill="#999ca2"/>
          <path id="패스_863458" data-name="패스 863458" d="M122.509,51.808a2.492,2.492,0,0,1-1.624,1.587h-2.048c-.547,0-1.529-.738-1.529-1.308v-4a2.492,2.492,0,0,1,1.624-1.587h2.049c.547,0,1.528.737,1.528,1.307Zm-1-3.8a.66.66,0,0,0-.747-.663h-1.52a1.462,1.462,0,0,0-.934.943v3.6a.755.755,0,0,0,.84.663h1.426a1.466,1.466,0,0,0,.935-.943Z" transform="translate(-8.212 -2.909)" fill="#999ca2"/>
          <path id="패스_863459" data-name="패스 863459" d="M128.893,46.606c.538,0,1.481.728,1.481,1.2v5.5h-1V48.137a.7.7,0,0,0-.764-.691h-1.859V53.31h-1V47.325a.265.265,0,0,1,.1-.234l.5-.421a.29.29,0,0,1,.217-.064Z" transform="translate(-8.803 -2.917)" fill="#999ca2"/>
          <path id="패스_863460" data-name="패스 863460" d="M137.674,46.606v.84h-2.9V49.4H137.5l-.189.84h-2.538V52.47h2.9v.84h-3.9V47.325a.265.265,0,0,1,.1-.234l.5-.421a.293.293,0,0,1,.218-.064Z" transform="translate(-9.365 -2.917)" fill="#999ca2"/>
          <path id="패스_863461" data-name="패스 863461" d="M144.615,46.606v.84h-2.9V49.4h2.727l-.189.84h-2.538V52.47h2.9v.84h-3.9V47.325a.265.265,0,0,1,.1-.234l.5-.421a.293.293,0,0,1,.218-.064Z" transform="translate(-9.85 -2.917)" fill="#999ca2"/>
          <path id="패스_863462" data-name="패스 863462" d="M151.015,46.606c.717,0,1.095.3,1.095,1.073v1.167a1.713,1.713,0,0,1-.792,1.514l1.095,2.95H151.4l-.981-2.671a1.235,1.235,0,0,1-.189.009h-1.586V53.31h-1V47.325a.264.264,0,0,1,.1-.234l.5-.421a.291.291,0,0,1,.217-.064Zm-2.369.84v2.362h1.595c.623,0,.868-.429.868-.952V47.7c0-.157-.122-.251-.358-.251Z" transform="translate(-10.336 -2.917)" fill="#999ca2"/>
          <path id="패스_863463" data-name="패스 863463" d="M164.81,51.808a2.492,2.492,0,0,1-1.624,1.587h-2.047c-.548,0-1.53-.738-1.53-1.308v-4a2.492,2.492,0,0,1,1.624-1.587h2.048c.548,0,1.529.737,1.529,1.307Zm-1-3.8a.659.659,0,0,0-.746-.663h-1.519a1.462,1.462,0,0,0-.935.943v3.6a.755.755,0,0,0,.84.663h1.426a1.464,1.464,0,0,0,.934-.943Z" transform="translate(-11.173 -2.909)" fill="#999ca2"/>
          <path id="패스_863464" data-name="패스 863464" d="M169.075,46.606h3.067v.84h-2.888V49.4h2.717l-.188.84h-2.53V53.31h-1V47.325a.265.265,0,0,1,.1-.234l.5-.421a.29.29,0,0,1,.217-.064" transform="translate(-11.778 -2.917)" fill="#999ca2"/>
          <path id="패스_863465" data-name="패스 863465" d="M186.627,46.606l-1.255,6.283c-.047.234-.161.421-.359.421h-.99c-.207,0-.3-.2-.35-.4l-.906-3.633-.906,3.633c-.047.205-.141.4-.349.4h-.991c-.2,0-.312-.187-.359-.421l-1.255-6.283h.981l1.142,5.948,1.085-4.435h1.3l1.085,4.435,1.142-5.948Z" transform="translate(-12.524 -2.917)" fill="#999ca2"/>
          <path id="패스_863466" data-name="패스 863466" d="M193.643,46.606v.84h-2.9V49.4h2.727l-.189.84h-2.538V52.47h2.9v.84h-3.9V47.325a.265.265,0,0,1,.1-.234l.5-.421a.293.293,0,0,1,.218-.064Z" transform="translate(-13.282 -2.917)" fill="#999ca2"/>
          <path id="패스_863467" data-name="패스 863467" d="M200.016,46.6c.821,0,1.095.43,1.095,1.167v.981a1.02,1.02,0,0,1-.576,1.018,1.015,1.015,0,0,1,.726.962v1.055a1.989,1.989,0,0,1-1.509,1.523h-3.067V47.325a.264.264,0,0,1,.1-.234l.5-.421a.289.289,0,0,1,.218-.065Zm-2.35.831V49.4H199.5c.462,0,.631-.178.631-.514V47.837c0-.242-.056-.4-.405-.4Zm2.614,3.249c0-.383-.255-.448-.528-.448h-2.086V52.47h1.85c.264,0,.764-.44.764-.683Z" transform="translate(-13.768 -2.917)" fill="#999ca2"/>
          <path id="패스_863468" data-name="패스 863468" d="M208.815,46.606h2.6a1.636,1.636,0,0,1,1.359,1.317v.616a1.321,1.321,0,0,1-.8,1.1,1.128,1.128,0,0,1,.9,1.159v.925A2.244,2.244,0,0,1,211.3,53.31h-2.548v-.84h2.161a1.129,1.129,0,0,0,.963-.9V50.63a.449.449,0,0,0-.472-.448h-2.274v-.84h1.689c.529,0,.964-.178.964-.869V48.09a.611.611,0,0,0-.671-.644h-2.293Z" transform="translate(-14.613 -2.917)" fill="#999ca2"/>
          <rect id="사각형_353422" data-name="사각형 353422" width="1.283" height="1.138" transform="translate(200.855 49.693)" fill="#999ca2"/>
          <path id="패스_863469" data-name="패스 863469" d="M224.449,51.808c0,.579-1.17,1.587-1.717,1.587h-1.2c-.547,0-1.623-.645-1.623-1.308v-4c0-.579,1.17-1.587,1.718-1.587h1.2c.547,0,1.623.644,1.623,1.307Zm-1-3.8a.659.659,0,0,0-.746-.663h-.858a1.289,1.289,0,0,0-.935.943v3.6a.754.754,0,0,0,.84.663h.764a1.289,1.289,0,0,0,.935-.943Z" transform="translate(-15.394 -2.909)" fill="#999ca2"/>
          <g id="그룹_473025" data-name="그룹 473025" transform="translate(0 1.726)">
            <path id="패스_863470" data-name="패스 863470" d="M45.8,8.753A3.917,3.917,0,1,1,41.961,4.8,3.9,3.9,0,0,1,45.8,8.753" transform="translate(-2.658 -0.383)" fill="#999ca2"/>
            <path id="패스_863471" data-name="패스 863471" d="M27.089,35.938a33.8,33.8,0,0,1-7.34-.826C13.56,33.734,6.912,28.767,3.2,22.75.2,17.87-.717,12.717.563,7.845,1.795,3.152,5.291.223,9.914.011c5.281-.242,12.016,3.37,15.159,11.981a19.53,19.53,0,0,0,3.35,5.918,7.183,7.183,0,0,0,7-.39c4.856-3.071,10.967-3.906,13.913-1.9a3.768,3.768,0,0,1,1.587,4.113A16.736,16.736,0,0,1,47.109,27.2c-4.831,5.68-12.012,8.74-20.02,8.74M10.422,2.05c-.139,0-.275,0-.412.009a7.906,7.906,0,0,0-7.441,6.3c-1.434,5.459.516,10.257,2.4,13.321C8.408,27.255,14.528,31.848,20.2,33.11c14.545,3.239,22.552-3.979,25.32-7.232a15.073,15.073,0,0,0,3.254-6.022V19.84a1.019,1.019,0,0,1,.058-.338c.044-.124.066-.2.071-.22a1.734,1.734,0,0,0-.742-1.971c-1.99-1.356-7.134-.9-11.621,1.936a9.287,9.287,0,0,1-9.292.366,1,1,0,0,1-.284-.23,21.481,21.481,0,0,1-3.844-6.7c-2.7-7.4-8.245-10.638-12.7-10.638M35.984,18.384h0Z" transform="translate(0 0)" fill="#999ca2"/>
            <path id="패스_863472" data-name="패스 863472" d="M27.088,35.939a33.8,33.8,0,0,1-7.34-.827C13.56,33.734,6.912,28.767,3.2,22.75.2,17.871-.717,12.718.563,7.846,1.795,3.152,5.291.223,9.914.012,15.194-.23,21.929,3.381,25.073,11.993c2.713,7.429,8.424,11.543,16.519,11.9,5.97.246,7.261-4.407,7.314-4.607a1.04,1.04,0,0,1,1.233-.745,1.023,1.023,0,0,1,.789,1.194A16.755,16.755,0,0,1,47.109,27.2c-4.831,5.679-12.012,8.74-20.021,8.74M10.422,2.051c-.139,0-.276,0-.412.009a7.906,7.906,0,0,0-7.442,6.3c-1.433,5.459.517,10.258,2.4,13.321C8.407,27.255,14.528,31.848,20.2,33.111c14.545,3.238,22.552-3.979,25.32-7.233q.292-.342.562-.693a10.274,10.274,0,0,1-4.586.754c-9-.395-15.355-4.976-18.376-13.25-2.7-7.4-8.246-10.638-12.7-10.638" transform="translate(0 0)" fill="#999ca2"/>
          </g>
        </g>
      </g>
    </g>
  </g>
</svg>
