<svg xmlns="http://www.w3.org/2000/svg" xmlns:xlink="http://www.w3.org/1999/xlink" width="191" height="39" viewBox="0 0 191 39">
  <defs>
    <clipPath id="clip-path">
      <rect id="사각형_353424" data-name="사각형 353424" width="191" height="39" transform="translate(0 -0.231)" fill="#fff"/>
    </clipPath>
  </defs>
  <g id="마스크_그룹_472090" data-name="마스크 그룹 472090" transform="translate(0 0.231)" clip-path="url(#clip-path)">
    <g id="그룹_473028" data-name="그룹 473028" transform="translate(0 -1)">
      <rect id="사각형_353415" data-name="사각형 353415" width="4.755" height="23.776" transform="translate(141.157 2.625)" fill="#fff"/>
      <g id="그룹_473027" data-name="그룹 473027" transform="translate(0 0)">
        <g id="마스크_그룹_473026" data-name="마스크 그룹 473026" clip-path="url(#clip-path)">
          <path id="패스_863448" data-name="패스 863448" d="M145.618,26.7h-6.455V21.981h6.455a1.414,1.414,0,0,0,1.42-1.4V9.216a1.414,1.414,0,0,0-1.42-1.405h-12.9V3.088h12.9a6.168,6.168,0,0,1,6.193,6.128v11.36a6.168,6.168,0,0,1-6.193,6.128" transform="translate(-36.445 -0.478)" fill="#fff"/>
          <rect id="사각형_353416" data-name="사각형 353416" width="4.773" height="17.238" transform="translate(96.274 8.988)" fill="#fff"/>
          <path id="패스_863449" data-name="패스 863449" d="M176.546,26.7h-6.455V21.981h6.455a1.414,1.414,0,0,0,1.42-1.4V9.216a1.414,1.414,0,0,0-1.42-1.405h-12.9V3.088h12.9a6.168,6.168,0,0,1,6.193,6.128v11.36a6.168,6.168,0,0,1-6.193,6.128" transform="translate(-44.937 -0.478)" fill="#fff"/>
          <rect id="사각형_353417" data-name="사각형 353417" width="4.773" height="17.238" transform="translate(118.709 8.988)" fill="#fff"/>
          <path id="패스_863450" data-name="패스 863450" d="M82.681,21.98H76.238V17.257h6.443a1.414,1.414,0,0,0,1.42-1.4V9.215a1.414,1.414,0,0,0-1.42-1.4H66.917V3.087H82.681a6.168,6.168,0,0,1,6.193,6.128v6.637a6.168,6.168,0,0,1-6.193,6.128" transform="translate(-18.375 -0.478)" fill="#fff"/>
          <rect id="사각형_353418" data-name="사각형 353418" width="4.773" height="17.238" transform="translate(51.405 8.988)" fill="#fff"/>
          <rect id="사각형_353419" data-name="사각형 353419" width="4.773" height="17.238" transform="translate(88.16 2.61)" fill="#fff"/>
          <rect id="사각형_353420" data-name="사각형 353420" width="4.773" height="17.238" transform="translate(73.84 2.61)" fill="#fff"/>
          <path id="패스_863451" data-name="패스 863451" d="M114.756,29.408H102.027a6.186,6.186,0,0,0,6.023,4.723h6.706a6.167,6.167,0,0,0,5.747-3.843,6.059,6.059,0,0,0,.275-.88h-6.022" transform="translate(-28.017 -7.906)" fill="#fff"/>
          <path id="패스_863452" data-name="패스 863452" d="M224.552,34.147h4.614V29.462h-7.694Z" transform="translate(-60.817 -7.921)" fill="#fff"/>
          <path id="패스_863453" data-name="패스 863453" d="M224.852,3.088H220.1v14.8l-9.727-14.8h-4.615V26.7h4.751v-14.8l5.569,8.47h8.773Z" transform="translate(-56.502 -0.478)" fill="#fff"/>
          <path id="패스_863454" data-name="패스 863454" d="M241.459,29.212h0a4.748,4.748,0,0,1-4.773-4.723V11.974h4.773Z" transform="translate(-64.994 -2.986)" fill="#fff"/>
          <path id="패스_863455" data-name="패스 863455" d="M255.778,7.811H236.685a4.748,4.748,0,0,1,4.774-4.723h14.319Z" transform="translate(-64.994 -0.478)" fill="#fff"/>
          <path id="패스_863456" data-name="패스 863456" d="M255.832,31.046H245.571V26.323h7.874V23.2h-4.773V18.475h7.16a2.374,2.374,0,0,1,2.387,2.362v7.848a2.374,2.374,0,0,1-2.387,2.362" transform="translate(-67.434 -4.821)" fill="#fff"/>
          <path id="패스_863457" data-name="패스 863457" d="M106.007,46.6h2.172c.559,0,.758.306.758.837v1.136a1.541,1.541,0,0,1-1.148,1.231h-1.642v2.025h-.781V47.166a.2.2,0,0,1,.081-.182l.39-.328a.224.224,0,0,1,.169-.051m.14,2.549h1.384a.7.7,0,0,0,.625-.561V47.464c0-.123-.051-.2-.236-.2h-1.774Z" transform="translate(-28.934 -12.759)" fill="#fff"/>
          <rect id="사각형_353421" data-name="사각형 353421" width="0.781" height="5.229" transform="translate(82.035 33.846)" fill="#fff"/>
          <path id="패스_863458" data-name="패스 863458" d="M121.364,50.641A1.944,1.944,0,0,1,120.1,51.88h-1.6c-.427,0-1.193-.576-1.193-1.02V47.742a1.944,1.944,0,0,1,1.267-1.238h1.6c.427,0,1.192.575,1.192,1.019Zm-.78-2.964a.514.514,0,0,0-.582-.518h-1.185a1.141,1.141,0,0,0-.728.736v2.812a.589.589,0,0,0,.655.517h1.112a1.143,1.143,0,0,0,.729-.736Z" transform="translate(-32.213 -12.731)" fill="#fff"/>
          <path id="패스_863459" data-name="패스 863459" d="M128.2,46.606c.42,0,1.156.568,1.156.94v4.29h-.78V47.8a.542.542,0,0,0-.6-.539h-1.45v4.574h-.781V47.167a.206.206,0,0,1,.081-.182l.39-.328a.226.226,0,0,1,.169-.05Z" transform="translate(-34.531 -12.759)" fill="#fff"/>
          <path id="패스_863460" data-name="패스 863460" d="M136.816,46.606v.655h-2.26v1.522h2.127l-.147.655h-1.98V51.18h2.26v.655h-3.04V47.167a.206.206,0,0,1,.081-.182l.39-.328a.229.229,0,0,1,.17-.05Z" transform="translate(-36.735 -12.759)" fill="#fff"/>
          <path id="패스_863461" data-name="패스 863461" d="M143.757,46.606v.655H141.5v1.522h2.127l-.147.655H141.5V51.18h2.26v.655h-3.04V47.167a.207.207,0,0,1,.081-.182l.39-.328a.229.229,0,0,1,.17-.05Z" transform="translate(-38.641 -12.759)" fill="#fff"/>
          <path id="패스_863462" data-name="패스 863462" d="M150.274,46.606c.559,0,.854.233.854.837v.91a1.336,1.336,0,0,1-.618,1.181l.854,2.3h-.788l-.765-2.083a.963.963,0,0,1-.147.007h-1.237v2.076h-.78V47.167a.206.206,0,0,1,.081-.182l.39-.328a.227.227,0,0,1,.169-.05Zm-1.848.655V49.1h1.244c.486,0,.677-.334.677-.743v-.9c0-.123-.1-.2-.279-.2Z" transform="translate(-40.544 -12.759)" fill="#fff"/>
          <path id="패스_863463" data-name="패스 863463" d="M163.665,50.641A1.944,1.944,0,0,1,162.4,51.88h-1.6c-.427,0-1.193-.576-1.193-1.02V47.742a1.944,1.944,0,0,1,1.267-1.238h1.6c.427,0,1.193.575,1.193,1.019Zm-.781-2.964a.514.514,0,0,0-.582-.518h-1.185a1.14,1.14,0,0,0-.729.736v2.812a.589.589,0,0,0,.655.517h1.112a1.142,1.142,0,0,0,.728-.736Z" transform="translate(-43.829 -12.731)" fill="#fff"/>
          <path id="패스_863464" data-name="패스 863464" d="M168.895,46.606h2.392v.655h-2.252v1.522h2.12l-.147.655h-1.973v2.4h-.781V47.167a.206.206,0,0,1,.081-.182l.39-.328a.226.226,0,0,1,.169-.05" transform="translate(-46.203 -12.759)" fill="#fff"/>
          <path id="패스_863465" data-name="패스 863465" d="M184.929,46.606l-.979,4.9c-.037.182-.125.328-.28.328H182.9c-.162,0-.236-.153-.273-.313l-.707-2.834-.707,2.834c-.037.16-.11.313-.272.313h-.773c-.155,0-.243-.146-.28-.328l-.979-4.9h.765l.891,4.639.847-3.459h1.016l.847,3.459.891-4.639Z" transform="translate(-49.128 -12.759)" fill="#fff"/>
          <path id="패스_863466" data-name="패스 863466" d="M192.785,46.606v.655h-2.26v1.522h2.127l-.147.655h-1.98V51.18h2.26v.655h-3.04V47.167a.207.207,0,0,1,.081-.182l.39-.328a.229.229,0,0,1,.17-.05Z" transform="translate(-52.104 -12.759)" fill="#fff"/>
          <path id="패스_863467" data-name="패스 863467" d="M199.283,46.6c.641,0,.854.335.854.91v.765a.8.8,0,0,1-.449.794.791.791,0,0,1,.567.75v.823a1.551,1.551,0,0,1-1.177,1.188h-2.392V47.166a.206.206,0,0,1,.081-.182l.39-.328a.225.225,0,0,1,.17-.051Zm-1.833.648v1.53h1.428c.361,0,.493-.139.493-.4v-.816c0-.189-.044-.313-.316-.313Zm2.039,2.535c0-.3-.2-.35-.412-.35H197.45v1.741h1.443c.206,0,.6-.343.6-.533Z" transform="translate(-54.01 -12.759)" fill="#fff"/>
          <path id="패스_863468" data-name="패스 863468" d="M208.8,46.606h2.032a1.276,1.276,0,0,1,1.06,1.027v.48a1.03,1.03,0,0,1-.626.859.88.88,0,0,1,.7.9V50.6a1.751,1.751,0,0,1-1.229,1.237h-1.988V51.18h1.686a.881.881,0,0,0,.751-.7v-.735a.35.35,0,0,0-.368-.35h-1.774V48.74h1.317c.413,0,.752-.139.752-.678v-.3a.476.476,0,0,0-.523-.5H208.8Z" transform="translate(-57.323 -12.759)" fill="#fff"/>
          <rect id="사각형_353422" data-name="사각형 353422" width="1.001" height="0.888" transform="translate(156.667 38.53)" fill="#fff"/>
          <path id="패스_863469" data-name="패스 863469" d="M223.451,50.641c0,.451-.913,1.238-1.339,1.238h-.935c-.427,0-1.266-.5-1.266-1.02V47.742c0-.451.913-1.238,1.34-1.238h.934c.427,0,1.266.5,1.266,1.019Zm-.78-2.964a.514.514,0,0,0-.582-.518h-.67a1,1,0,0,0-.729.736v2.812a.588.588,0,0,0,.655.517h.6a1,1,0,0,0,.729-.736Z" transform="translate(-60.388 -12.731)" fill="#fff"/>
          <g id="그룹_473025" data-name="그룹 473025" transform="translate(0 1.116)">
            <path id="패스_863470" data-name="패스 863470" d="M44.073,7.883A3.055,3.055,0,1,1,41.082,4.8a3.041,3.041,0,0,1,2.992,3.084" transform="translate(-10.425 -1.354)" fill="#fff"/>
            <path id="패스_863471" data-name="패스 863471" d="M21.129,28.032a26.365,26.365,0,0,1-5.726-.645c-4.827-1.075-10.013-4.949-12.9-9.642A14.716,14.716,0,0,1,.439,6.119,7.713,7.713,0,0,1,7.733.009C11.852-.18,17.1,2.637,19.557,9.353A15.233,15.233,0,0,0,22.17,13.97a5.6,5.6,0,0,0,5.463-.3c3.788-2.4,8.555-3.046,10.852-1.479a2.939,2.939,0,0,1,1.238,3.209,13.054,13.054,0,0,1-2.977,5.821,20.1,20.1,0,0,1-15.616,6.817M8.129,1.6c-.108,0-.215,0-.321.007A6.167,6.167,0,0,0,2,6.522,13.32,13.32,0,0,0,3.879,16.912c2.679,4.346,7.453,7.929,11.879,8.914,11.345,2.527,17.591-3.1,19.75-5.641a11.757,11.757,0,0,0,2.538-4.7v-.012a.8.8,0,0,1,.045-.263c.034-.1.052-.157.055-.172a1.352,1.352,0,0,0-.579-1.538c-1.552-1.058-5.565-.7-9.065,1.51a7.243,7.243,0,0,1-7.247.286.782.782,0,0,1-.221-.179,16.755,16.755,0,0,1-3-5.223C15.93,4.126,11.6,1.6,8.129,1.6m19.939,12.74h0Z" transform="translate(0 0)" fill="#fff"/>
            <path id="패스_863472" data-name="패스 863472" d="M21.129,28.033a26.365,26.365,0,0,1-5.725-.645c-4.827-1.075-10.013-4.949-12.9-9.642A14.714,14.714,0,0,1,.439,6.12,7.711,7.711,0,0,1,7.733.01C11.852-.179,17.1,2.637,19.557,9.354c2.116,5.795,6.571,9,12.885,9.28,4.656.192,5.664-3.437,5.7-3.593a.811.811,0,0,1,.962-.581.8.8,0,0,1,.615.931,13.069,13.069,0,0,1-2.978,5.825,20.1,20.1,0,0,1-15.616,6.817M8.129,1.6c-.108,0-.215,0-.321.007A6.167,6.167,0,0,0,2,6.522,13.325,13.325,0,0,0,3.879,16.913c2.679,4.346,7.453,7.929,11.88,8.914,11.345,2.526,17.591-3.1,19.75-5.642q.227-.267.438-.54a8.014,8.014,0,0,1-3.577.588c-7.02-.308-11.977-3.881-14.333-10.335C15.93,4.127,11.6,1.6,8.129,1.6" transform="translate(0 0)" fill="#fff"/>
          </g>
        </g>
      </g>
    </g>
  </g>
</svg>
