<svg xmlns="http://www.w3.org/2000/svg" width="264" height="54" viewBox="0 0 264 54">
  <g id="그룹_473024" data-name="그룹 473024" transform="translate(-11785.711 -2510.034)">
    <g id="그룹_473019" data-name="그룹 473019">
      <rect id="사각형_353408" data-name="사각형 353408" width="6.633" height="33.362" transform="translate(11980.727 2512.035)" fill="#00554e"/>
      <g id="그룹_473012" data-name="그룹 473012">
        <path id="패스_863418" data-name="패스 863418" d="M11936.3,2545.4h-8.97v-6.672h8.97a1.981,1.981,0,0,0,1.973-1.985v-16.048a1.98,1.98,0,0,0-1.973-1.984h-17.927v-6.673h17.927a8.642,8.642,0,0,1,8.606,8.657v16.048A8.642,8.642,0,0,1,11936.3,2545.4Z" fill="#00554e"/>
        <rect id="사각형_353409" data-name="사각형 353409" width="6.633" height="24.352" transform="translate(11918.374 2521.045)" fill="#00554e"/>
      </g>
      <g id="그룹_473013" data-name="그룹 473013">
        <path id="패스_863419" data-name="패스 863419" d="M11967.477,2545.4h-8.97v-6.672h8.97a1.981,1.981,0,0,0,1.974-1.985v-16.048a1.981,1.981,0,0,0-1.974-1.984h-17.927v-6.673h17.927a8.642,8.642,0,0,1,8.606,8.657v16.048A8.641,8.641,0,0,1,11967.477,2545.4Z" fill="#00554e"/>
        <rect id="사각형_353410" data-name="사각형 353410" width="6.633" height="24.352" transform="translate(11949.551 2521.045)" fill="#00554e"/>
      </g>
      <g id="그룹_473014" data-name="그룹 473014">
        <path id="패스_863420" data-name="패스 863420" d="M11873.949,2538.725H11865v-6.673h8.954a1.98,1.98,0,0,0,1.973-1.984v-9.376a1.98,1.98,0,0,0-1.973-1.984h-21.907v-6.673h21.907a8.641,8.641,0,0,1,8.605,8.657v9.376A8.641,8.641,0,0,1,11873.949,2538.725Z" fill="#00554e"/>
        <rect id="사각형_353411" data-name="사각형 353411" width="6.633" height="24.352" transform="translate(11856.022 2521.045)" fill="#00554e"/>
      </g>
      <g id="그룹_473016" data-name="그룹 473016">
        <rect id="사각형_353412" data-name="사각형 353412" width="6.633" height="24.352" transform="translate(11907.098 2512.035)" fill="#00554e"/>
        <rect id="사각형_353413" data-name="사각형 353413" width="6.633" height="24.352" transform="translate(11887.198 2512.035)" fill="#00554e"/>
        <g id="그룹_473015" data-name="그룹 473015">
          <path id="패스_863421" data-name="패스 863421" d="M11905.124,2538.725h-17.689a8.629,8.629,0,0,0,8.37,6.672h9.319a8.57,8.57,0,0,0,7.987-5.429,8.762,8.762,0,0,0,.382-1.243h-8.369Z" fill="#00554e"/>
          <path id="패스_863422" data-name="패스 863422" d="M11913.731,2536.388h-6.634v.352a1.99,1.99,0,0,1-.141.739,1.968,1.968,0,0,1-1.831,1.246h8.367a8.717,8.717,0,0,0,.238-1.985Z" fill="#f4b0a9"/>
          <path id="패스_863423" data-name="패스 863423" d="M11893.831,2536.74v-.352h-6.633v.352a8.751,8.751,0,0,0,.236,1.985h8.368A1.982,1.982,0,0,1,11893.831,2536.74Z" fill="#f4b0a9"/>
        </g>
      </g>
      <g id="그룹_473017" data-name="그룹 473017">
        <path id="패스_863424" data-name="패스 863424" d="M12012.122,2545.4h6.413v-6.618h-10.692Z" fill="#00554e"/>
        <path id="패스_863425" data-name="패스 863425" d="M12018.535,2512.035h-6.6v20.9l-13.518-20.9H11992V2545.4h6.6v-20.9l7.738,11.965h12.191Z" fill="#00554e"/>
        <path id="패스_863426" data-name="패스 863426" d="M12006.344,2536.461l1.5,2.318h10.692v-2.318Z" fill="#f4b0a9"/>
      </g>
      <g id="그룹_473018" data-name="그룹 473018">
        <path id="패스_863427" data-name="패스 863427" d="M12029.811,2545.4h0a6.653,6.653,0,0,1-6.633-6.672v-17.68h6.633Z" fill="#00554e"/>
        <path id="패스_863428" data-name="패스 863428" d="M12049.711,2518.708h-26.533a6.654,6.654,0,0,1,6.633-6.673h19.9Z" fill="#00554e"/>
        <path id="패스_863429" data-name="패스 863429" d="M12046.394,2545.4h-14.259v-6.672h10.943v-4.415h-6.634v-6.673h9.949a3.327,3.327,0,0,1,3.317,3.337v11.087A3.326,3.326,0,0,1,12046.394,2545.4Z" fill="#00554e"/>
      </g>
    </g>
    <g id="그룹_473022" data-name="그룹 473022">
      <path id="패스_863430" data-name="패스 863430" d="M11831.346,2518.128a4.245,4.245,0,1,1-4.156-4.357A4.256,4.256,0,0,1,11831.346,2518.128Z" fill="#008e80"/>
      <g id="그룹_473021" data-name="그룹 473021">
        <g id="그룹_473020" data-name="그룹 473020">
          <path id="패스_863431" data-name="패스 863431" d="M11823.591,2529.161a8.806,8.806,0,0,1-8.931.364c3.562,4.212,8.627,6.55,14.959,6.832,7.522.335,9.065-5.927,9.065-5.927v0C11839.781,2525.111,11830.754,2524.556,11823.591,2529.161Z" fill="#f4b0a9"/>
        </g>
        <path id="패스_863432" data-name="패스 863432" d="M11834.79,2538.147a17.392,17.392,0,0,0,3.895-7.717s-1.543,6.262-9.065,5.927c-9.259-.413-15.811-5.218-18.912-13.855-5.363-14.934-21.392-16.405-24.424-4.668-3.481,13.474,9.629,26.32,19.956,28.657C11819.423,2549.475,11829.314,2544.691,11834.79,2538.147Z" fill="#008e80"/>
      </g>
    </g>
    <g id="그룹_473023" data-name="그룹 473023">
      <path id="패스_863433" data-name="패스 863433" d="M11891.691,2556.166h3.016c.777,0,1.053.432,1.053,1.183v1.6a2.163,2.163,0,0,1-1.595,1.738h-2.28v2.859h-1.084v-6.592a.292.292,0,0,1,.113-.257l.541-.463A.315.315,0,0,1,11891.691,2556.166Zm.193,3.6h1.922a.974.974,0,0,0,.869-.793v-1.593c0-.175-.072-.288-.327-.288h-2.464Z" fill="#00554e"/>
      <path id="패스_863434" data-name="패스 863434" d="M11898.585,2563.55v-7.384h1.084v7.384Z" fill="#00554e"/>
      <path id="패스_863435" data-name="패스 863435" d="M11908.473,2561.9a2.719,2.719,0,0,1-1.759,1.749h-2.218c-.593,0-1.657-.812-1.657-1.44v-4.4a2.721,2.721,0,0,1,1.759-1.749h2.22c.593,0,1.655.812,1.655,1.44Zm-1.084-4.185a.717.717,0,0,0-.807-.73h-1.646c-.338,0-1.013.719-1.013,1.038V2562a.821.821,0,0,0,.91.73h1.544c.337,0,1.012-.719,1.012-1.038Z" fill="#00554e"/>
      <path id="패스_863436" data-name="패스 863436" d="M11914.754,2556.166c.583,0,1.605.8,1.605,1.327v6.057h-1.084v-5.7a.757.757,0,0,0-.828-.76h-2.015v6.458h-1.084v-6.592a.294.294,0,0,1,.113-.257l.542-.463a.311.311,0,0,1,.235-.072Z" fill="#00554e"/>
      <path id="패스_863437" data-name="패스 863437" d="M11923.663,2556.166v.926h-3.139v2.149h2.953l-.2.925h-2.75v2.458h3.139v.926h-4.223v-6.592a.293.293,0,0,1,.111-.257l.542-.463a.313.313,0,0,1,.235-.072Z" fill="#00554e"/>
      <path id="패스_863438" data-name="패스 863438" d="M11930.659,2556.166v.926h-3.14v2.149h2.955l-.2.925h-2.752v2.458h3.14v.926h-4.224v-6.592a.294.294,0,0,1,.113-.257l.541-.463a.315.315,0,0,1,.236-.072Z" fill="#00554e"/>
      <path id="패스_863439" data-name="패스 863439" d="M11937.072,2556.166c.776,0,1.186.329,1.186,1.183v1.285a1.9,1.9,0,0,1-.858,1.667l1.186,3.249h-1.094l-1.063-2.941a1.323,1.323,0,0,1-.2.01h-1.718v2.931h-1.084v-6.592a.289.289,0,0,1,.113-.257l.541-.463a.314.314,0,0,1,.235-.072Zm-2.566.926v2.6h1.728c.675,0,.94-.474.94-1.049v-1.276c0-.175-.133-.277-.388-.277Z" fill="#00554e"/>
      <path id="패스_863440" data-name="패스 863440" d="M11951.115,2561.9a2.721,2.721,0,0,1-1.759,1.749h-2.219c-.594,0-1.656-.812-1.656-1.44v-4.4a2.721,2.721,0,0,1,1.759-1.749h2.219c.592,0,1.656.812,1.656,1.44Zm-1.084-4.185a.719.719,0,0,0-.809-.73h-1.646c-.337,0-1.012.719-1.012,1.038V2562a.82.82,0,0,0,.909.73h1.543c.339,0,1.014-.719,1.014-1.038Z" fill="#00554e"/>
      <path id="패스_863441" data-name="패스 863441" d="M11955.085,2556.166h3.322v.926h-3.128v2.149h2.944l-.205.925h-2.739v3.384h-1.084v-6.592a.294.294,0,0,1,.112-.257l.541-.463A.316.316,0,0,1,11955.085,2556.166Z" fill="#00554e"/>
      <path id="패스_863442" data-name="패스 863442" d="M11973.3,2556.166l-1.359,6.921c-.052.258-.176.463-.39.463h-1.074c-.224,0-.325-.216-.378-.442l-.98-4-.982,4c-.051.226-.152.442-.378.442h-1.073c-.215,0-.338-.205-.389-.463l-1.36-6.921H11966l1.237,6.551,1.175-4.885h1.411l1.176,4.885,1.237-6.551Z" fill="#00554e"/>
      <path id="패스_863443" data-name="패스 863443" d="M11980.082,2556.166v.926h-3.139v2.149h2.954l-.2.925h-2.75v2.458h3.139v.926h-4.223v-6.592a.293.293,0,0,1,.111-.257l.542-.463a.314.314,0,0,1,.235-.072Z" fill="#00554e"/>
      <path id="패스_863444" data-name="패스 863444" d="M11986.464,2556.166c.89,0,1.187.473,1.187,1.286v1.079a1.2,1.2,0,0,0,.164,2.181v1.162a2.173,2.173,0,0,1-1.636,1.676h-3.323v-6.592a.294.294,0,0,1,.112-.257l.541-.463a.315.315,0,0,1,.236-.072Zm-2.545.916v2.159h1.983c.5,0,.685-.2.685-.566v-1.151c0-.268-.061-.442-.439-.442Zm2.832,3.578c0-.422-.276-.494-.572-.494h-2.26v2.458h2c.286,0,.828-.483.828-.75Z" fill="#00554e"/>
      <path id="패스_863445" data-name="패스 863445" d="M11995.089,2556.166h2.821a1.787,1.787,0,0,1,1.472,1.45v.679a1.454,1.454,0,0,1-.869,1.213,1.239,1.239,0,0,1,.972,1.276v1.018a2.452,2.452,0,0,1-1.707,1.748h-2.761v-.926h2.342a1.233,1.233,0,0,0,1.043-.986V2560.6a.491.491,0,0,0-.513-.494h-2.463v-.925h1.83c.572,0,1.042-.2,1.042-.957v-.422a.665.665,0,0,0-.725-.709h-2.484Z" fill="#00554e"/>
      <path id="패스_863446" data-name="패스 863446" d="M12002.3,2564.034v-1.256h1.392v1.256Z" fill="#00554e"/>
      <path id="패스_863447" data-name="패스 863447" d="M12011.185,2561.9c0,.638-1.267,1.749-1.859,1.749h-1.3c-.594,0-1.759-.71-1.759-1.44v-4.4c0-.638,1.269-1.749,1.861-1.749h1.3c.593,0,1.758.71,1.758,1.44Zm-1.083-4.185a.718.718,0,0,0-.808-.73h-.93a1.407,1.407,0,0,0-1.013,1.038V2562a.82.82,0,0,0,.91.73h.828a1.408,1.408,0,0,0,1.012-1.038Z" fill="#00554e"/>
    </g>
  </g>
</svg>
