<svg xmlns="http://www.w3.org/2000/svg" width="105.574" height="101.077" viewBox="0 0 105.574 101.077">
  <path id="패스_864237" data-name="패스 864237" d="M57,5.622l8.755,26.944a4.518,4.518,0,0,0,4.3,3.121H98.382a4.517,4.517,0,0,1,2.655,8.172L78.117,60.512a4.517,4.517,0,0,0-1.641,5.05l8.755,26.945a4.517,4.517,0,0,1-6.951,5.05L55.359,80.9a4.519,4.519,0,0,0-5.311,0L27.128,97.557a4.517,4.517,0,0,1-6.951-5.05l8.755-26.945a4.517,4.517,0,0,0-1.641-5.05L4.371,43.859a4.517,4.517,0,0,1,2.655-8.172H35.357a4.517,4.517,0,0,0,4.3-3.121L48.408,5.622A4.517,4.517,0,0,1,57,5.622Z" transform="translate(0.083 0)" fill="#fff240" stroke="#fff240" stroke-linecap="round" stroke-width="5"/>
</svg>
