<svg id="그룹_1" data-name="그룹 1" xmlns="http://www.w3.org/2000/svg" width="100" height="100" viewBox="0 0 100 100">
  <path id="빼기_1" data-name="빼기 1" d="M48.648,100H14.338a5.941,5.941,0,0,1-4.192-10.146l4.5-4.5A50.069,50.069,0,0,1,45.982.156C47.316.053,48.668,0,50,0A50,50,0,0,1,99.995,50.738,48.906,48.906,0,0,1,84.5,85.7,51.853,51.853,0,0,1,48.648,100Zm21.7-54.915a5.234,5.234,0,1,0,5.232,5.236A5.24,5.24,0,0,0,70.349,45.085ZM50,45.085a5.234,5.234,0,1,0,5.232,5.236A5.24,5.24,0,0,0,50,45.085Zm-20.354,0a5.234,5.234,0,1,0,5.232,5.236A5.239,5.239,0,0,0,29.647,45.085Z" fill="#fff"/>
</svg>
