<svg id="구성_요소_30_26" data-name="구성 요소 30 – 26" xmlns="http://www.w3.org/2000/svg" width="50" height="50" viewBox="0 0 50 50">
  <g id="타원_1139" data-name="타원 1139" fill="none" stroke="#fff" stroke-width="2">
    <circle cx="25" cy="25" r="25" stroke="none"/>
    <circle cx="25" cy="25" r="24" fill="none"/>
  </g>
  <g id="그룹_473521" data-name="그룹 473521" transform="translate(11.267 11.266)">
    <g id="그룹_473520" data-name="그룹 473520">
      <path id="패스_863736" data-name="패스 863736" d="M970.269,421.182a1.581,1.581,0,1,0,1.581,1.58A1.58,1.58,0,0,0,970.269,421.182Z" transform="translate(-949.649 -416.367)" fill="#fff"/>
      <path id="패스_863737" data-name="패스 863737" d="M959.359,423.86A6.641,6.641,0,1,0,966,430.5,6.648,6.648,0,0,0,959.359,423.86Zm0,10.894a4.254,4.254,0,1,1,4.254-4.254A4.258,4.258,0,0,1,959.359,434.754Z" transform="translate(-945.766 -417.018)" fill="#fff"/>
      <path id="패스_863738" data-name="패스 863738" d="M962.4,441.785H951.632a8.109,8.109,0,0,1-8.1-8.1V422.919a8.108,8.108,0,0,1,8.1-8.1H962.4a8.109,8.109,0,0,1,8.1,8.1v10.767A8.109,8.109,0,0,1,962.4,441.785Zm-10.765-24.428a5.569,5.569,0,0,0-5.563,5.562v10.767a5.569,5.569,0,0,0,5.563,5.562H962.4a5.569,5.569,0,0,0,5.563-5.562V422.919a5.569,5.569,0,0,0-5.563-5.562Z" transform="translate(-943.533 -414.82)" fill="#fff"/>
    </g>
  </g>
</svg>
