<svg xmlns="http://www.w3.org/2000/svg" width="8" height="10" viewBox="0 0 8 10">
  <g id="그룹_72" data-name="그룹 72" transform="translate(-352 -189)">
    <path id="다각형_4" data-name="다각형 4" d="M3.646.354a.5.5,0,0,1,.707,0L7.146,3.146A.5.5,0,0,1,6.793,4H1.207a.5.5,0,0,1-.354-.854Z" transform="translate(360 199) rotate(180)" fill="#ccc"/>
    <path id="다각형_5" data-name="다각형 5" d="M3.646.354a.5.5,0,0,1,.707,0L7.146,3.146A.5.5,0,0,1,6.793,4H1.207a.5.5,0,0,1-.354-.854Z" transform="translate(352 189)" fill="#ccc"/>
  </g>
</svg>
