<svg id="구성_요소_28_26" data-name="구성 요소 28 – 26" xmlns="http://www.w3.org/2000/svg" width="50" height="50" viewBox="0 0 50 50">
  <g id="타원_1141" data-name="타원 1141" fill="none" stroke="#fff" stroke-width="2">
    <circle cx="25" cy="25" r="25" stroke="none"/>
    <circle cx="25" cy="25" r="24" fill="none"/>
  </g>
  <path id="패스_863740" data-name="패스 863740" d="M970.645,487.228a6.013,6.013,0,0,0-6.013-6.013H949.258a6.012,6.012,0,0,0-6.012,6.013v7.154a6.012,6.012,0,0,0,6.012,6.013h15.374a6.013,6.013,0,0,0,6.013-6.013Zm-9.042,4.114-6.894,3.411c-.27.146-1.188-.049-1.188-.357v-7c0-.311.926-.506,1.2-.353l6.6,3.591C961.593,490.789,961.883,491.189,961.6,491.341Z" transform="translate(-932.099 -466.056)" fill="#fff"/>
</svg>
