<svg xmlns="http://www.w3.org/2000/svg" width="21" height="21" viewBox="0 0 21 21">
  <g id="그룹_9" data-name="그룹 9" transform="translate(-1261.5 -1068.5)">
    <rect id="사각형_13" data-name="사각형 13" width="20" height="20" transform="translate(1262 1069)" fill="none"/>
    <g id="그룹_12" data-name="그룹 12" transform="translate(11 112)">
      <path id="빼기_1" data-name="빼기 1" d="M10,20A10,10,0,1,1,20,10,10.011,10.011,0,0,1,10,20Zm3.02-13.19a.543.543,0,0,0,0,1.085h1.156v4.752a.525.525,0,1,0,1.049,0V7.895h1.155a.543.543,0,0,0,0-1.085Zm-4.285,0a.534.534,0,0,0-.523.543v5.295a.524.524,0,1,0,1.048,0v-2.1h2.353a.543.543,0,0,0,0-1.085H9.26V7.895h2.353a.543.543,0,0,0,0-1.085ZM4.143,9.3l0,0,2.114,3.624a.521.521,0,0,0,.448.262.536.536,0,0,0,.141-.019.543.543,0,0,0,.383-.524V7.352a.525.525,0,1,0-1.048,0V10.7L4.067,7.072a.524.524,0,0,0-.449-.263.5.5,0,0,0-.14.02.542.542,0,0,0-.383.523v5.295a.525.525,0,1,0,1.048,0V9.3Z" transform="translate(1251 957)" fill="#e61f2c" stroke="rgba(0,0,0,0)" stroke-width="1"/>
    </g>
  </g>
</svg>
