<svg xmlns="http://www.w3.org/2000/svg" width="20" height="20" viewBox="0 0 20 20">
  <g id="그룹_8" data-name="그룹 8" transform="translate(-1237 -1069)">
    <path id="패스_10" data-name="패스 10" d="M18.637,7.1,12.786,2.1A3.9,3.9,0,0,0,7.82,2.013L1.463,7.1A3.894,3.894,0,0,0,0,10.14V16.1A3.9,3.9,0,0,0,3.9,20H16.1A3.9,3.9,0,0,0,20,16.1V10.061A3.894,3.894,0,0,0,18.637,7.1m-6.3,7.849A2.331,2.331,0,1,1,10,12.619,2.332,2.332,0,0,1,12.332,14.951Z" transform="translate(1237 1068.42)" fill="#c7cbd2"/>
    <rect id="사각형_12" data-name="사각형 12" width="20" height="20" transform="translate(1237 1069)" fill="none"/>
  </g>
</svg>
