<svg xmlns="http://www.w3.org/2000/svg" width="20" height="21" viewBox="0 0 20 21">
  <g id="그룹_11" data-name="그룹 11" transform="translate(-1312 -1068.5)">
    <path id="합치기_3" data-name="합치기 3" d="M2.241,20A2.152,2.152,0,0,1,0,17.957v-.806a6.413,6.413,0,0,1,3.263-5.479,5.749,5.749,0,0,1,2.95-.781,6.67,6.67,0,0,1,1.569.189,6.116,6.116,0,0,0,2.9-.014,6.531,6.531,0,0,1,1.607-.2,5.629,5.629,0,0,1,2.655.64,6.5,6.5,0,0,1,3.559,5.647v.806A2.151,2.151,0,0,1,16.266,20ZM4.53,4.675A4.675,4.675,0,1,1,9.2,9.35,4.675,4.675,0,0,1,4.53,4.675Z" transform="translate(1312.746 1069)" fill="#c7cbd2" stroke="rgba(0,0,0,0)" stroke-width="1"/>
    <rect id="사각형_15" data-name="사각형 15" width="20" height="20" transform="translate(1312 1069)" fill="none"/>
  </g>
</svg>
