<svg xmlns="http://www.w3.org/2000/svg" xmlns:xlink="http://www.w3.org/1999/xlink" width="85" height="82.719" viewBox="0 0 85 82.719">
  <defs>
    <filter id="패스_864295" x="0" y="0" width="85" height="82.719" filterUnits="userSpaceOnUse">
      <feOffset input="SourceAlpha"/>
      <feGaussianBlur stdDeviation="5" result="blur"/>
      <feFlood flood-opacity="0.302"/>
      <feComposite operator="in" in2="blur"/>
      <feComposite in="SourceGraphic"/>
    </filter>
  </defs>
  <g id="그룹_475289" data-name="그룹 475289" transform="translate(-100 -1579.141)">
    <g transform="matrix(1, 0, 0, 1, 100, 1579.14)" filter="url(#패스_864295)">
      <path id="패스_864295-2" data-name="패스 864295" d="M55,26.359c0,2.829-2.928,5.162-3.757,7.715-.859,2.646.109,6.248-1.494,8.451-1.619,2.225-5.355,2.409-7.58,4.028-2.2,1.6-3.524,5.108-6.17,5.967-2.553.829-5.67-1.2-8.5-1.2s-5.947,2.032-8.5,1.2c-2.646-.859-3.967-4.364-6.17-5.967-2.225-1.619-5.961-1.8-7.579-4.028-1.6-2.2-.634-5.8-1.494-8.451C2.928,31.521,0,29.189,0,26.359S2.928,21.2,3.757,18.645C4.616,16,3.648,12.4,5.251,10.194,6.87,7.969,10.606,7.785,12.83,6.166c2.2-1.6,3.524-5.108,6.17-5.967,2.553-.829,5.671,1.2,8.5,1.2S33.447-.631,36,.2c2.646.859,3.967,4.364,6.17,5.967,2.225,1.619,5.961,1.8,7.58,4.028,1.6,2.2.634,5.8,1.494,8.451C52.072,21.2,55,23.53,55,26.359" transform="translate(15 15)" fill="#580098" opacity="0.8"/>
    </g>
    <path id="패스_864296" data-name="패스 864296" d="M141.041,206.064a3.322,3.322,0,0,1-2.349-.973l-8.242-8.242a3.322,3.322,0,1,1,4.7-4.7l5.893,5.893,11.486-11.486a3.322,3.322,0,0,1,4.7,4.7L143.39,205.091a3.322,3.322,0,0,1-2.349.973" transform="translate(-2.204 1426.146)" fill="#fff"/>
    <rect id="사각형_354030" data-name="사각형 354030" width="55" height="55" transform="translate(115 1593)" fill="none"/>
  </g>
</svg>
