<svg xmlns="http://www.w3.org/2000/svg" width="160" height="20" viewBox="0 0 160 20">
  <path id="합치기_1" data-name="합치기 1" d="M-383.174,19.626a4.865,4.865,0,0,1-1.637-1.052,4.969,4.969,0,0,1-1.078-1.609,5.231,5.231,0,0,1-.393-2.046,5.308,5.308,0,0,1,.393-2.055,4.936,4.936,0,0,1,1.078-1.62,4.839,4.839,0,0,1,1.637-1.052,5.642,5.642,0,0,1,2.067-.374,5.714,5.714,0,0,1,2.076.374,4.942,4.942,0,0,1,1.657,1.052,4.846,4.846,0,0,1,1.088,1.621,5.3,5.3,0,0,1,.395,2.055,5.225,5.225,0,0,1-.395,2.046,4.89,4.89,0,0,1-1.087,1.609,4.948,4.948,0,0,1-1.658,1.052,5.709,5.709,0,0,1-2.076.374A5.634,5.634,0,0,1-383.174,19.626Zm.08-6.805a2.957,2.957,0,0,0-.754,2.1,3.361,3.361,0,0,0,.2,1.182,2.73,2.73,0,0,0,.558.908,2.441,2.441,0,0,0,.867.59,3.042,3.042,0,0,0,1.12.2,3.03,3.03,0,0,0,1.119-.2,2.415,2.415,0,0,0,.867-.589,2.722,2.722,0,0,0,.559-.908,3.375,3.375,0,0,0,.2-1.182,2.962,2.962,0,0,0-.755-2.1,2.6,2.6,0,0,0-1.987-.8A2.6,2.6,0,0,0-383.095,12.82ZM-401.889,19.6a5.2,5.2,0,0,1-1.676-1.085,4.924,4.924,0,0,1-1.1-1.624,5.142,5.142,0,0,1-.394-2.008,5.142,5.142,0,0,1,.394-2.008,5.05,5.05,0,0,1,1.1-1.633,5.068,5.068,0,0,1,1.676-1.094,5.6,5.6,0,0,1,2.129-.4,5.537,5.537,0,0,1,2.108.4,5.177,5.177,0,0,1,1.686,1.094,4.968,4.968,0,0,1,1.108,1.633,5.159,5.159,0,0,1,.394,2.008,5.159,5.159,0,0,1-.394,2.008,4.855,4.855,0,0,1-1.108,1.624,5.33,5.33,0,0,1-1.685,1.085,5.564,5.564,0,0,1-2.109.4A5.613,5.613,0,0,1-401.889,19.6Zm1-7.426a2.752,2.752,0,0,0-.9.618,2.9,2.9,0,0,0-.6.937,3.1,3.1,0,0,0-.217,1.154,3.042,3.042,0,0,0,.217,1.154,2.781,2.781,0,0,0,.6.926,2.856,2.856,0,0,0,.9.61,2.832,2.832,0,0,0,1.127.224,2.832,2.832,0,0,0,1.127-.224,2.857,2.857,0,0,0,.9-.61,2.746,2.746,0,0,0,.6-.926,3.024,3.024,0,0,0,.217-1.154,3.083,3.083,0,0,0-.217-1.154,2.877,2.877,0,0,0-.6-.937,2.747,2.747,0,0,0-.9-.618,2.793,2.793,0,0,0-1.127-.225A2.8,2.8,0,0,0-400.887,12.177Zm-39.832,7.405a5.34,5.34,0,0,1-1.735-1.138,5.329,5.329,0,0,1-1.135-1.685A5.207,5.207,0,0,1-444,14.7a5,5,0,0,1,.387-1.976A5.031,5.031,0,0,1-442.7,11.3h-2.711a1.014,1.014,0,0,1-.829-.331,1.157,1.157,0,0,1-.266-.757,1.2,1.2,0,0,1,.266-.78,1.016,1.016,0,0,1,.829-.331h4.494V6.231a1.211,1.211,0,0,1,.391-.983,1.32,1.32,0,0,1,.866-.317,1.342,1.342,0,0,1,.855.315,1.2,1.2,0,0,1,.4.985V9.1h6.795a1.048,1.048,0,0,1,.837.329,1.171,1.171,0,0,1,.278.782,1.132,1.132,0,0,1-.278.759,1.045,1.045,0,0,1-.837.329h-2.714a5.19,5.19,0,0,1,.908,1.422,4.938,4.938,0,0,1,.391,1.976,5.229,5.229,0,0,1-.413,2.061,5.246,5.246,0,0,1-1.146,1.686,5.466,5.466,0,0,1-1.745,1.137,5.756,5.756,0,0,1-2.206.418A5.7,5.7,0,0,1-440.719,19.582Zm1-8.027a2.955,2.955,0,0,0-.959.7,3.2,3.2,0,0,0-.629,1.035,3.58,3.58,0,0,0-.226,1.276,3.583,3.583,0,0,0,.226,1.275,3.192,3.192,0,0,0,.629,1.035,2.855,2.855,0,0,0,.957.685,2.976,2.976,0,0,0,1.2.245,2.979,2.979,0,0,0,1.2-.245,2.873,2.873,0,0,0,.958-.685,3.193,3.193,0,0,0,.628-1.035,3.565,3.565,0,0,0,.226-1.275,3.563,3.563,0,0,0-.226-1.276,3.19,3.19,0,0,0-.628-1.035,2.972,2.972,0,0,0-.96-.7,2.85,2.85,0,0,0-1.2-.256A2.85,2.85,0,0,0-439.715,11.555Zm-17.1,8.048a5.2,5.2,0,0,1-1.676-1.085,4.925,4.925,0,0,1-1.1-1.624,5.143,5.143,0,0,1-.394-2.008,5.143,5.143,0,0,1,.394-2.008,5.062,5.062,0,0,1,1.1-1.633,5.081,5.081,0,0,1,1.677-1.094,5.6,5.6,0,0,1,2.129-.4,5.545,5.545,0,0,1,2.109.4,5.187,5.187,0,0,1,1.686,1.094,4.968,4.968,0,0,1,1.108,1.633,5.159,5.159,0,0,1,.394,2.008,5.159,5.159,0,0,1-.394,2.008,4.855,4.855,0,0,1-1.108,1.624A5.325,5.325,0,0,1-452.58,19.6a5.573,5.573,0,0,1-2.11.4A5.62,5.62,0,0,1-456.819,19.6Zm1-7.426a2.756,2.756,0,0,0-.9.619,2.924,2.924,0,0,0-.6.937,3.107,3.107,0,0,0-.216,1.154,3.1,3.1,0,0,0,.216,1.154,2.782,2.782,0,0,0,.6.926,2.872,2.872,0,0,0,.9.61,2.832,2.832,0,0,0,1.127.224,2.834,2.834,0,0,0,1.128-.224,2.858,2.858,0,0,0,.9-.61,2.726,2.726,0,0,0,.6-.926,3.082,3.082,0,0,0,.216-1.154,3.089,3.089,0,0,0-.216-1.154,2.894,2.894,0,0,0-.6-.937,2.753,2.753,0,0,0-.9-.618,2.8,2.8,0,0,0-1.128-.225A2.8,2.8,0,0,0-455.816,12.177Zm91.431,7.612a2.9,2.9,0,0,1-1.114-.208,2.733,2.733,0,0,1-.875-.569,2.542,2.542,0,0,1-.57-.855,2.744,2.744,0,0,1-.2-1.037,2.567,2.567,0,0,1,.2-1.019,2.445,2.445,0,0,1,.572-.822,2.687,2.687,0,0,1,.876-.548,3.089,3.089,0,0,1,1.115-.2h6.184a.508.508,0,0,0,.386-.148.532.532,0,0,0,.145-.386.4.4,0,0,0-.136-.334.619.619,0,0,0-.394-.114h-7.531a1.119,1.119,0,0,1-.767-.268.988.988,0,0,1-.307-.779,1.058,1.058,0,0,1,.3-.8,1.071,1.071,0,0,1,.769-.291h7.693a2.965,2.965,0,0,1,1.983.654A2.409,2.409,0,0,1-355.272,14a2.439,2.439,0,0,1-.776,1.939,2.94,2.94,0,0,1-1.988.667h-6.185a.533.533,0,0,0-.387.138.475.475,0,0,0-.143.363.447.447,0,0,0,.14.352.556.556,0,0,0,.389.129h8.262a1.065,1.065,0,0,1,.77.295,1.071,1.071,0,0,1,.3.8,1.074,1.074,0,0,1-.3.806,1.068,1.068,0,0,1-.769.294Zm26.224-.089a11.254,11.254,0,0,1-1.471-.5,10.987,10.987,0,0,1-1.425-.724,10.083,10.083,0,0,1-1.291-.926,7.481,7.481,0,0,1-.982-.992,8.368,8.368,0,0,1-1,.992,10.025,10.025,0,0,1-1.292.926,11.3,11.3,0,0,1-1.412.724,10.857,10.857,0,0,1-1.466.5,1.626,1.626,0,0,1-.431.066,1.018,1.018,0,0,1-.85-.374,1.309,1.309,0,0,1-.285-.82,1.192,1.192,0,0,1,.188-.642.993.993,0,0,1,.6-.421,12.312,12.312,0,0,0,1.731-.636,7.8,7.8,0,0,0,1.5-.9A4.332,4.332,0,0,0-345,14.835a2.563,2.563,0,0,0,.392-1.379v-.339a1.17,1.17,0,0,1,.4-.962,1.367,1.367,0,0,1,.875-.317,1.37,1.37,0,0,1,.875.317,1.17,1.17,0,0,1,.4.962v.339a2.566,2.566,0,0,0,.391,1.379,4.356,4.356,0,0,0,1.052,1.142,7.737,7.737,0,0,0,1.5.9,12.266,12.266,0,0,0,1.732.636,1.033,1.033,0,0,1,.582.42,1.138,1.138,0,0,1,.2.644,1.3,1.3,0,0,1-.285.82,1.018,1.018,0,0,1-.85.374A1.463,1.463,0,0,1-338.161,19.7Zm6.519-.12A2.2,2.2,0,0,1-333.325,19a2.419,2.419,0,0,1-.537-1.694v-2.62a2.417,2.417,0,0,1,.537-1.694,2.194,2.194,0,0,1,1.682-.582h7.293a2.2,2.2,0,0,1,1.684.582,2.423,2.423,0,0,1,.535,1.694V17.3A2.423,2.423,0,0,1-322.667,19a2.206,2.206,0,0,1-1.684.582Zm.255-2.2h6.782v-2.77h-6.782Zm-92.795,2.137a2.935,2.935,0,0,1-2.162-.822,3.234,3.234,0,0,1-.821-2.375V13.179a1.24,1.24,0,0,1,.389-.99,1.327,1.327,0,0,1,.888-.33,1.359,1.359,0,0,1,.865.327,1.215,1.215,0,0,1,.413.993v3.076a1.135,1.135,0,0,0,.244.816.876.876,0,0,0,.65.244h7.551a.97.97,0,0,1,.81.351,1.2,1.2,0,0,1,.263.748,1.2,1.2,0,0,1-.263.749.969.969,0,0,1-.81.351Zm-54.743-3.308a.96.96,0,0,1-.81-.354,1.25,1.25,0,0,1-.264-.776,1.214,1.214,0,0,1,.264-.756.963.963,0,0,1,.81-.355h5.665v-2.7a1.232,1.232,0,0,1,.391-1,1.348,1.348,0,0,1,.886-.318,1.371,1.371,0,0,1,.863.316,1.2,1.2,0,0,1,.414,1v2.7h5.644a.99.99,0,0,1,.831.355,1.216,1.216,0,0,1,.263.756,1.254,1.254,0,0,1-.262.776.989.989,0,0,1-.831.354Zm61.448-2.7a1.185,1.185,0,0,1-.391-.961V1.278a1.182,1.182,0,0,1,.391-.96A1.3,1.3,0,0,1-416.631,0a1.294,1.294,0,0,1,.845.318,1.182,1.182,0,0,1,.391.96V12.549a1.185,1.185,0,0,1-.391.961,1.3,1.3,0,0,1-.845.318A1.3,1.3,0,0,1-417.477,13.509Zm78.39-1.327a1.193,1.193,0,0,1-.383-.961V6.582h-1.708v3.44a1.24,1.24,0,0,1-.357.958,1.193,1.193,0,0,1-.82.32,1.26,1.26,0,0,1-.836-.318,1.2,1.2,0,0,1-.38-.96V1.363a1.2,1.2,0,0,1,.38-.959,1.259,1.259,0,0,1,.836-.319,1.192,1.192,0,0,1,.819.32,1.239,1.239,0,0,1,.358.958v3h1.708V1.278a1.191,1.191,0,0,1,.383-.959A1.279,1.279,0,0,1-338.244,0a1.326,1.326,0,0,1,.853.317,1.181,1.181,0,0,1,.395.961v9.944a1.176,1.176,0,0,1-.395.961,1.322,1.322,0,0,1-.853.319A1.287,1.287,0,0,1-339.087,12.182Zm4.149-.777a1.018,1.018,0,0,1-.828-.331,1.161,1.161,0,0,1-.267-.759,1.182,1.182,0,0,1,.267-.778,1.018,1.018,0,0,1,.828-.332h5.665V7.7h-4.1a.967.967,0,0,1-.81-.352,1.2,1.2,0,0,1-.263-.748,1.18,1.18,0,0,1,.265-.759.982.982,0,0,1,.808-.34h1.24V2.538h-1.139a.981.981,0,0,1-.809-.343,1.179,1.179,0,0,1-.264-.748,1.2,1.2,0,0,1,.264-.765.973.973,0,0,1,.809-.343h10.536a1,1,0,0,1,.829.343,1.192,1.192,0,0,1,.266.765,1.174,1.174,0,0,1-.266.748,1,1,0,0,1-.829.343h-1.119V5.5h1.221a1.007,1.007,0,0,1,.829.34,1.178,1.178,0,0,1,.265.759,1.194,1.194,0,0,1-.264.749.99.99,0,0,1-.83.351h-4.122V9.205h5.645a1.05,1.05,0,0,1,.836.331,1.156,1.156,0,0,1,.279.78,1.135,1.135,0,0,1-.278.76,1.05,1.05,0,0,1-.837.33Zm5.276-5.906h3.332V2.538h-3.332Zm-148.144,5.44a.973.973,0,0,1-.5-.222,1.241,1.241,0,0,1-.309-.412,1.239,1.239,0,0,1-.111-.517,1.2,1.2,0,0,1,.176-.618,1.051,1.051,0,0,1,.582-.443,8.806,8.806,0,0,0,1.865-.916A6.855,6.855,0,0,0-474.607,6.5a5.9,5.9,0,0,0,.988-1.678,5.7,5.7,0,0,0,.359-2.051V2.017a1.166,1.166,0,0,1,.4-.962,1.361,1.361,0,0,1,.875-.317,1.365,1.365,0,0,1,.876.318,1.167,1.167,0,0,1,.4.961v.757a5.68,5.68,0,0,0,.359,2.051A5.88,5.88,0,0,0-469.36,6.5a6.824,6.824,0,0,0,1.49,1.308A8.8,8.8,0,0,0-466,8.727a1.05,1.05,0,0,1,.58.442,1.224,1.224,0,0,1,.176.619,1.224,1.224,0,0,1-.111.517,1.24,1.24,0,0,1-.309.412.982.982,0,0,1-.5.223,1.086,1.086,0,0,1-.173.013,1.521,1.521,0,0,1-.461-.079A9.75,9.75,0,0,1-469.8,9.193a9.977,9.977,0,0,1-2.18-2.459,10.375,10.375,0,0,1-2.2,2.459,9.827,9.827,0,0,1-2.983,1.682,1.524,1.524,0,0,1-.463.079A1.042,1.042,0,0,1-477.806,10.939Zm128.062-.23a2.716,2.716,0,0,1-1.221-.263,2.575,2.575,0,0,1-.877-.7,2.967,2.967,0,0,1-.514-1,4.009,4.009,0,0,1-.166-1.144,4.02,4.02,0,0,1,.166-1.145,3.1,3.1,0,0,1,.513-1.011,2.54,2.54,0,0,1,.878-.713,2.716,2.716,0,0,1,1.221-.264h2.051a.584.584,0,0,0,.526-.261,1.149,1.149,0,0,0,.186-.651,1.162,1.162,0,0,0-.186-.651.585.585,0,0,0-.526-.26h-3.39a.949.949,0,0,1-.789-.348,1.182,1.182,0,0,1-.265-.753A1.206,1.206,0,0,1-351.872.8a.938.938,0,0,1,.79-.358h3.674A2.672,2.672,0,0,1-346.2.707a2.629,2.629,0,0,1,.866.7,3.191,3.191,0,0,1,.523.982,3.624,3.624,0,0,1,.177,1.129,3.63,3.63,0,0,1-.177,1.13,3.038,3.038,0,0,1-.524.972,2.669,2.669,0,0,1-.865.692,2.653,2.653,0,0,1-1.213.265h-2.01a.6.6,0,0,0-.536.282,1.238,1.238,0,0,0-.2.694,1.2,1.2,0,0,0,.2.682.6.6,0,0,0,.536.273h4.141a.913.913,0,0,1,.781.356,1.253,1.253,0,0,1,.253.754,1.209,1.209,0,0,1-.254.745.927.927,0,0,1-.78.344Zm-27.517-.53a1.18,1.18,0,0,1-.394-.964V6.159h-1.506V8.231a1.236,1.236,0,0,1-.358.958,1.183,1.183,0,0,1-.818.321,1.264,1.264,0,0,1-.837-.319,1.2,1.2,0,0,1-.379-.96V1.363A1.2,1.2,0,0,1-381.173.4a1.26,1.26,0,0,1,.837-.319,1.181,1.181,0,0,1,.818.323,1.246,1.246,0,0,1,.358.963V3.962h1.506V1.285a1.187,1.187,0,0,1,.394-.965,1.319,1.319,0,0,1,.852-.32,1.273,1.273,0,0,1,.843.32,1.193,1.193,0,0,1,.383.962V9.218a1.2,1.2,0,0,1-.383.962,1.279,1.279,0,0,1-.843.318A1.308,1.308,0,0,1-377.261,10.179Zm9.222.172a.993.993,0,0,1-.808-.331,1.16,1.16,0,0,1-.265-.757,1.131,1.131,0,0,1,.265-.737,1,1,0,0,1,.808-.332h13.864a1.016,1.016,0,0,1,.828.332,1.126,1.126,0,0,1,.267.737,1.156,1.156,0,0,1-.267.757,1.013,1.013,0,0,1-.828.331Zm-59.062-.46a4.871,4.871,0,0,1-1.626-1.009,4.953,4.953,0,0,1-1.108-1.58,5,5,0,0,1-.414-2.063,5.071,5.071,0,0,1,.414-2.074,4.892,4.892,0,0,1,1.108-1.59A4.88,4.88,0,0,1-427.1.565,5.589,5.589,0,0,1-425.116.21a5.664,5.664,0,0,1,1.994.355,4.843,4.843,0,0,1,1.638,1.011,4.892,4.892,0,0,1,1.108,1.59,5.1,5.1,0,0,1,.414,2.074,5.025,5.025,0,0,1-.414,2.063,4.954,4.954,0,0,1-1.108,1.58,4.873,4.873,0,0,1-1.638,1.01,5.618,5.618,0,0,1-1.994.354A5.532,5.532,0,0,1-427.1,9.891Zm.956-7.288a2.657,2.657,0,0,0-.871.548,2.647,2.647,0,0,0-.6.884,3.069,3.069,0,0,0-.226,1.2,3,3,0,0,0,.226,1.193,2.632,2.632,0,0,0,.6.873,2.591,2.591,0,0,0,.871.547,2.834,2.834,0,0,0,2.058,0,2.594,2.594,0,0,0,.87-.548,2.647,2.647,0,0,0,.6-.873,2.989,2.989,0,0,0,.226-1.193,3.073,3.073,0,0,0-.226-1.206,2.671,2.671,0,0,0-.6-.884,2.652,2.652,0,0,0-.871-.547,2.851,2.851,0,0,0-1.028-.192A2.863,2.863,0,0,0-426.145,2.6Zm34.923,6.7a1.3,1.3,0,0,1-.316-.841,1.054,1.054,0,0,1,.145-.534,1.228,1.228,0,0,1,.451-.436,6.937,6.937,0,0,0,1.551-1.185,5.18,5.18,0,0,0,.907-1.269,4.816,4.816,0,0,0,.428-1.28,7.3,7.3,0,0,0,.11-1.237v-1.1a1.243,1.243,0,0,1,.39-.991,1.3,1.3,0,0,1,.867-.33,1.314,1.314,0,0,1,.856.329,1.226,1.226,0,0,1,.4.992V2.437a10.494,10.494,0,0,0,.07,1.211,3.658,3.658,0,0,0,.356,1.179,4.5,4.5,0,0,0,.844,1.154,6.8,6.8,0,0,0,1.521,1.11,1.209,1.209,0,0,1,.455.449,1.114,1.114,0,0,1,.144.542,1.3,1.3,0,0,1-.317.842,1.015,1.015,0,0,1-.818.395,1.218,1.218,0,0,1-.642-.2,11.4,11.4,0,0,1-1.691-1.307,8.069,8.069,0,0,1-1.156-1.37,8.758,8.758,0,0,1-1.282,1.6,12.727,12.727,0,0,1-1.79,1.454,1.237,1.237,0,0,1-.345.162,1.253,1.253,0,0,1-.321.045A1.014,1.014,0,0,1-391.222,9.3Zm-17.688,0a1.278,1.278,0,0,1-.328-.843,1.13,1.13,0,0,1,.144-.542,1.2,1.2,0,0,1,.453-.449,8.913,8.913,0,0,0,1.627-1.188,7.055,7.055,0,0,0,1.08-1.267,4.67,4.67,0,0,0,.6-1.268,4.5,4.5,0,0,0,.179-1.226v-1.1a1.226,1.226,0,0,1,.4-.992,1.34,1.34,0,0,1,.876-.329,1.337,1.337,0,0,1,.876.329,1.226,1.226,0,0,1,.4.992V2.437a4.816,4.816,0,0,0,.15,1.187,3.833,3.833,0,0,0,.515,1.15A5.483,5.483,0,0,0-400.933,5.9a9.575,9.575,0,0,0,1.607,1.1,1.193,1.193,0,0,1,.454.449,1.117,1.117,0,0,1,.145.543,1.35,1.35,0,0,1-.316.852,1.013,1.013,0,0,1-.82.406.908.908,0,0,1-.32-.06,2.912,2.912,0,0,1-.316-.143,10.388,10.388,0,0,1-1.876-1.307A8.56,8.56,0,0,1-403.837,6.1a9.285,9.285,0,0,1-1.518,1.837,12.013,12.013,0,0,1-2.088,1.561,1.378,1.378,0,0,1-.64.2A1.043,1.043,0,0,1-408.91,9.3Zm-54.929,0a1.272,1.272,0,0,1-.329-.843,1.121,1.121,0,0,1,.145-.543,1.19,1.19,0,0,1,.452-.447,8.988,8.988,0,0,0,1.627-1.189,7.056,7.056,0,0,0,1.08-1.267,4.625,4.625,0,0,0,.6-1.268,4.5,4.5,0,0,0,.179-1.226v-1.1a1.226,1.226,0,0,1,.4-.992,1.344,1.344,0,0,1,.876-.329,1.34,1.34,0,0,1,.876.329,1.228,1.228,0,0,1,.4.992V2.437a4.827,4.827,0,0,0,.149,1.187,3.856,3.856,0,0,0,.515,1.15A5.549,5.549,0,0,0-455.862,5.9a9.586,9.586,0,0,0,1.607,1.1,1.2,1.2,0,0,1,.455.449,1.128,1.128,0,0,1,.144.543,1.35,1.35,0,0,1-.315.852,1.01,1.01,0,0,1-.819.406.9.9,0,0,1-.32-.06,2.829,2.829,0,0,1-.316-.143A10.38,10.38,0,0,1-457.3,7.746,8.588,8.588,0,0,1-458.766,6.1a9.262,9.262,0,0,1-1.518,1.837,11.988,11.988,0,0,1-2.088,1.561,1.358,1.358,0,0,1-.639.2A1.043,1.043,0,0,1-463.839,9.3Zm69.376.372a2.671,2.671,0,0,1-2.053-.706,2.973,2.973,0,0,1-.645-2.068V1.281a1.181,1.181,0,0,1,.391-.962A1.3,1.3,0,0,1-395.924,0a1.3,1.3,0,0,1,.846.32,1.188,1.188,0,0,1,.391.962v5.6c0,.409.187.6.591.6h.959a.971.971,0,0,1,.81.351,1.2,1.2,0,0,1,.263.749,1.2,1.2,0,0,1-.263.748.968.968,0,0,1-.81.35Zm-54.929,0a2.675,2.675,0,0,1-2.052-.706A2.967,2.967,0,0,1-452.09,6.9V1.281a1.185,1.185,0,0,1,.39-.962A1.3,1.3,0,0,1-450.854,0a1.294,1.294,0,0,1,.847.32,1.185,1.185,0,0,1,.392.962v5.6c0,.409.187.6.59.6h1.061a.968.968,0,0,1,.809.351,1.194,1.194,0,0,1,.265.749,1.191,1.191,0,0,1-.265.748.965.965,0,0,1-.809.35Zm14.209-1.861a1.145,1.145,0,0,1-.249-1.124,14.054,14.054,0,0,0,.252-1.591,15.248,15.248,0,0,0,.09-1.526.96.96,0,0,0-.248-.767.988.988,0,0,0-.646-.209h-7.49a1.012,1.012,0,0,1-.851-.355,1.275,1.275,0,0,1-.263-.8,1.189,1.189,0,0,1,.263-.734,1.013,1.013,0,0,1,.851-.354h7.733a3.218,3.218,0,0,1,2.229.8,3.018,3.018,0,0,1,.9,2.349,16.587,16.587,0,0,1-.122,1.928,13.876,13.876,0,0,1-.327,1.824,1.1,1.1,0,0,1-.468.711,1.3,1.3,0,0,1-.724.227A1.285,1.285,0,0,1-435.184,7.817Zm68.708-.562a.966.966,0,0,1-.81-.349,1.2,1.2,0,0,1-.264-.749,1.187,1.187,0,0,1,.265-.76.981.981,0,0,1,.809-.34h1.24V2.538h-1.138a.976.976,0,0,1-.809-.343,1.173,1.173,0,0,1-.265-.748,1.2,1.2,0,0,1,.265-.766.971.971,0,0,1,.809-.342h10.555a1,1,0,0,1,.83.343,1.2,1.2,0,0,1,.265.765,1.174,1.174,0,0,1-.266.748,1,1,0,0,1-.829.343h-1.118V5.056h1.22a1.009,1.009,0,0,1,.83.34,1.193,1.193,0,0,1,.264.76,1.2,1.2,0,0,1-.263.749.992.992,0,0,1-.831.349Zm3.712-2.2h3.353V2.538h-3.353Z" transform="translate(480)" fill="#e61f2c"/>
</svg>
