<svg id="그룹_4" data-name="그룹 4" xmlns="http://www.w3.org/2000/svg" width="50" height="50" viewBox="0 0 50 50">
  <path id="패스_3" data-name="패스 3" d="M25,50h0A25,25,0,1,1,50,25,25,25,0,0,1,25,50" fill="#ff4854"/>
  <path id="패스_4" data-name="패스 4" d="M27.8,48.216h0A20.413,20.413,0,1,1,48.216,27.8,20.413,20.413,0,0,1,27.8,48.216" transform="translate(-2.803 -2.803)" fill="#e61f2c"/>
  <path id="합치기_2" data-name="합치기 2" d="M-500.316-322.98v-8.157h-2.055a.931.931,0,0,1-.931-.932.931.931,0,0,1,.931-.931h5.97a.931.931,0,0,1,.931.931.932.932,0,0,1-.931.932h-2.053v8.157a.931.931,0,0,1-.931.932A.931.931,0,0,1-500.316-322.98Zm-10.595,0v-9.088a.932.932,0,0,1,.931-.931h5.108a.932.932,0,0,1,.932.931.931.931,0,0,1-.932.931h-4.178v2.683h4.178a.931.931,0,0,1,.932.931.932.932,0,0,1-.932.932h-4.178v3.613a.931.931,0,0,1-.931.932A.931.931,0,0,1-510.911-322.98Zm-3.47.482-3.758-6.225v5.744a.931.931,0,0,1-.931.932.931.931,0,0,1-.931-.932v-9.088a.933.933,0,0,1,.681-.9.93.93,0,0,1,1.047.416l3.758,6.226v-5.745a.932.932,0,0,1,.932-.931.932.932,0,0,1,.931.931v9.088a.931.931,0,0,1-.682.9.91.91,0,0,1-.249.034A.932.932,0,0,1-514.381-322.5Z" transform="translate(532.735 352.524)" fill="#fff" stroke="rgba(0,0,0,0)" stroke-width="1"/>
</svg>
