<svg xmlns="http://www.w3.org/2000/svg" width="50" height="50" viewBox="0 0 50 50">
  <g id="그룹_22" data-name="그룹 22" transform="translate(-182 -358)">
    <g id="타원_1" data-name="타원 1" transform="translate(182 358)" fill="none" stroke="#999ca2" stroke-width="2">
      <circle cx="25" cy="25" r="25" stroke="none"/>
      <circle cx="25" cy="25" r="24" fill="none"/>
    </g>
    <g id="그룹_21" data-name="그룹 21" transform="translate(149.5 -314.5)">
      <g id="그룹_6" data-name="그룹 6" transform="translate(40 680)">
        <path id="패스_3" data-name="패스 3" d="M17.5,35h0A17.5,17.5,0,1,1,35,17.5,17.5,17.5,0,0,1,17.5,35" fill="none"/>
      </g>
      <g id="그룹_14" data-name="그룹 14" transform="translate(43.806 683.806)">
        <path id="패스_12" data-name="패스 12" d="M73,3.184a10.891,10.891,0,0,0-16.489,14.13l7.7,10.526a1.345,1.345,0,0,0,2.17,0l7.7-10.526A10.889,10.889,0,0,0,73,3.184M65.3,14.141a3.31,3.31,0,1,1,3.31-3.31,3.31,3.31,0,0,1-3.31,3.31" transform="translate(-51.609 0.198)" fill="#999ca2"/>
        <rect id="사각형_14" data-name="사각형 14" width="27.387" height="28.632" transform="translate(0 0)" fill="none"/>
      </g>
    </g>
  </g>
</svg>
