<svg width="44" height="44" viewBox="0 0 44 44" fill="none" xmlns="http://www.w3.org/2000/svg">
<path d="M21.707 11.3173C23.6847 11.3173 25.288 9.57697 25.288 7.43014C25.288 5.28332 23.6847 3.54297 21.707 3.54297C19.7292 3.54297 18.126 5.28332 18.126 7.43014C18.126 9.57697 19.7292 11.3173 21.707 11.3173Z" fill="url(#paint0_linear_456_6239)"/>
<path d="M19.6452 43.4194C20.0192 43.4194 20.3778 43.2582 20.6422 42.9711C20.9067 42.6841 21.0552 42.2948 21.0552 41.8889V38.767C21.0552 38.767 21.2412 33.8616 16.5832 29.8659C11.9252 25.8702 11.2962 24.1008 9.80522 24.1008C8.31422 24.1008 8.85022 26.9079 10.1772 28.4493C11.5042 29.9907 13.6942 31.7058 11.9932 32.0391C11.004 32.081 10.0241 31.8175 9.16722 31.2792C8.1004 30.7797 7.10042 30.1265 6.19422 29.3373C4.51167 27.7856 3.45652 25.5799 3.25522 23.1933C3.21922 22.7233 3.22522 22.2479 3.22522 21.7746C3.22522 20.5545 3.55422 18.6342 2.20722 18.1631C0.928223 17.7148 0.286223 19.3235 0.155223 20.3113C-0.378819 24.3412 0.475758 28.4434 2.55522 31.8317C3.68663 33.4517 5.10555 34.8093 6.72822 35.8242C8.11454 36.6594 9.54692 37.4011 11.0172 38.0451C11.8052 38.4621 12.5019 39.0571 13.0607 39.7902C13.6195 40.5234 14.0274 41.3777 14.2572 42.296C14.338 42.6196 14.515 42.9051 14.7608 43.1081C15.0066 43.3111 15.3074 43.4202 15.6162 43.4184H19.6462L19.6452 43.4194Z" fill="url(#paint1_linear_456_6239)"/>
<path d="M4.58734 29.4387C4.58734 29.4387 3.36434 24.7364 4.72734 21.3995C6.09034 18.0627 7.97634 19.996 7.41834 21.6275C6.86034 23.259 6.15434 28.3022 9.58034 31.4871C13.0063 34.672 4.58734 34.2171 4.58734 29.4387Z" fill="url(#paint2_linear_456_6239)"/>
<path d="M6.46979 9.97259C9.25879 11.7246 10.1088 15.792 10.1088 15.792C10.1088 15.792 6.43579 17.0197 3.64779 15.2677C0.859789 13.5157 0.00878906 9.44721 0.00878906 9.44721C0.00878906 9.44721 3.68179 8.21951 6.46979 9.97259Z" fill="url(#paint3_linear_456_6239)"/>
<path d="M12.7037 4.63617C13.9617 7.85576 12.3857 11.6615 12.3857 11.6615C12.3857 11.6615 8.77069 10.2504 7.51269 7.02536C6.25469 3.80034 7.82969 0 7.82969 0C7.82969 0 11.4447 1.41115 12.7037 4.63617Z" fill="url(#paint4_linear_456_6239)"/>
<path d="M36.9427 9.97414C34.1537 11.7261 33.3066 15.7957 33.3066 15.7957C33.3066 15.7957 36.9796 17.0234 39.7676 15.2714C42.5556 13.5194 43.4037 9.44984 43.4037 9.44984C43.4037 9.44984 39.7317 8.22106 36.9427 9.97414Z" fill="url(#paint5_linear_456_6239)"/>
<path d="M30.7117 4.63617C29.4537 7.85576 31.0297 11.6615 31.0297 11.6615C31.0297 11.6615 34.6447 10.2504 35.9027 7.02536C37.1607 3.80034 35.5847 0 35.5847 0C35.5847 0 31.9697 1.41115 30.7117 4.63617Z" fill="url(#paint6_linear_456_6239)"/>
<path d="M23.7694 43.4199C23.3955 43.4199 23.0368 43.2586 22.7724 42.9716C22.508 42.6845 22.3594 42.2953 22.3594 41.8893V38.7674C22.3594 38.7674 22.1734 33.8621 26.8314 29.8663C31.4894 25.8706 32.1184 24.1012 33.6094 24.1012C35.1004 24.1012 34.5644 26.9083 33.2374 28.4498C31.9104 29.9912 29.7204 31.7063 31.4214 32.0395C32.4107 32.0814 33.3906 31.818 34.2474 31.2797C35.3142 30.7801 36.3142 30.127 37.2204 29.3377C38.9046 27.7854 39.9606 25.5778 40.1614 23.1894C40.1974 22.7194 40.1914 22.244 40.1914 21.7707C40.1914 20.5506 39.8624 18.6303 41.2094 18.1592C42.4884 17.7109 43.1304 19.3196 43.2614 20.3074C43.7955 24.3373 42.9409 28.4395 40.8614 31.8278C39.73 33.4478 38.3111 34.8053 36.6884 35.8203C35.3021 36.6555 33.8697 37.3972 32.3994 38.0412C31.6115 38.4582 30.9148 39.0532 30.356 39.7863C29.7972 40.5195 29.3892 41.3738 29.1594 42.2921C29.0787 42.6157 28.9016 42.9012 28.6558 43.1042C28.41 43.3072 28.1093 43.4163 27.8004 43.4145H23.7704L23.7694 43.4199Z" fill="url(#paint7_linear_456_6239)"/>
<path d="M38.8266 29.4387C38.8266 29.4387 40.0496 24.7364 38.6866 21.3995C37.3236 18.0627 35.4376 19.996 35.9956 21.6275C36.5536 23.259 37.2596 28.3022 33.8336 31.4871C30.4076 34.672 38.8256 34.2171 38.8256 29.4387H38.8266Z" fill="url(#paint8_linear_456_6239)"/>
<path d="M29.7772 14.5856C29.3381 14.1089 28.8169 13.7308 28.2432 13.4728C27.6695 13.2148 27.0546 13.082 26.4336 13.082C25.8127 13.082 25.1978 13.2148 24.6241 13.4728C24.0504 13.7308 23.5292 14.1089 23.0901 14.5856C22.6505 15.0616 22.3018 15.6272 22.0641 16.25C21.8264 16.8727 21.7044 17.5403 21.7051 18.2144C21.7059 17.5403 21.5839 16.8727 21.3463 16.2499C21.1086 15.6272 20.7599 15.0615 20.3202 14.5856C19.8811 14.1089 19.3599 13.7308 18.7862 13.4728C18.2125 13.2148 17.5976 13.082 16.9766 13.082C16.3557 13.082 15.7408 13.2148 15.1671 13.4728C14.5934 13.7308 14.0722 14.1089 13.6331 14.5856C13.194 15.0621 12.8457 15.628 12.608 16.2507C12.3704 16.8734 12.248 17.5409 12.248 18.2149C12.248 18.889 12.3704 19.5564 12.608 20.1792C12.8457 20.8019 13.194 21.3677 13.6331 21.8443L21.7042 30.6054L29.7752 21.8443C30.2143 21.3677 30.5626 20.8019 30.8003 20.1792C31.0379 19.5564 31.1602 18.889 31.1602 18.2149C31.1602 17.5409 31.0379 16.8734 30.8003 16.2507C30.5626 15.628 30.2143 15.0621 29.7752 14.5856H29.7772Z" fill="url(#paint9_linear_456_6239)"/>
<defs>
<linearGradient id="paint0_linear_456_6239" x1="21.707" y1="3.68291" x2="21.707" y2="47.1804" gradientUnits="userSpaceOnUse">
<stop stop-color="#98C2BB"/>
<stop offset="1" stop-color="#00AD8F"/>
</linearGradient>
<linearGradient id="paint1_linear_456_6239" x1="10.5281" y1="3.67118" x2="10.5281" y2="47.1688" gradientUnits="userSpaceOnUse">
<stop stop-color="#98C2BB"/>
<stop offset="1" stop-color="#00AD8F"/>
</linearGradient>
<linearGradient id="paint2_linear_456_6239" x1="7.24165" y1="3.68771" x2="7.24165" y2="47.1711" gradientUnits="userSpaceOnUse">
<stop stop-color="#98C2BB"/>
<stop offset="1" stop-color="#00AD8F"/>
</linearGradient>
<linearGradient id="paint3_linear_456_6239" x1="5.05879" y1="3.67961" x2="5.05879" y2="47.1665" gradientUnits="userSpaceOnUse">
<stop stop-color="#98C2BB"/>
<stop offset="1" stop-color="#00AD8F"/>
</linearGradient>
<linearGradient id="paint4_linear_456_6239" x1="10.1081" y1="3.68504" x2="10.1081" y2="47.1709" gradientUnits="userSpaceOnUse">
<stop stop-color="#98C2BB"/>
<stop offset="1" stop-color="#00AD8F"/>
</linearGradient>
<linearGradient id="paint5_linear_456_6239" x1="38.3551" y1="3.68025" x2="38.3551" y2="47.1778" gradientUnits="userSpaceOnUse">
<stop stop-color="#98C2BB"/>
<stop offset="1" stop-color="#00AD8F"/>
</linearGradient>
<linearGradient id="paint6_linear_456_6239" x1="33.3072" y1="3.68504" x2="33.3072" y2="47.1709" gradientUnits="userSpaceOnUse">
<stop stop-color="#98C2BB"/>
<stop offset="1" stop-color="#00AD8F"/>
</linearGradient>
<linearGradient id="paint7_linear_456_6239" x1="32.8875" y1="3.6648" x2="32.8875" y2="47.1699" gradientUnits="userSpaceOnUse">
<stop stop-color="#98C2BB"/>
<stop offset="1" stop-color="#00AD8F"/>
</linearGradient>
<linearGradient id="paint8_linear_456_6239" x1="36.1723" y1="3.68771" x2="36.1723" y2="47.1711" gradientUnits="userSpaceOnUse">
<stop stop-color="#98C2BB"/>
<stop offset="1" stop-color="#00AD8F"/>
</linearGradient>
<linearGradient id="paint9_linear_456_6239" x1="21.7041" y1="3.68953" x2="21.7041" y2="47.1824" gradientUnits="userSpaceOnUse">
<stop stop-color="#98C2BB"/>
<stop offset="1" stop-color="#00AD8F"/>
</linearGradient>
</defs>
</svg>
